<?xml version="1.0" standalone="no"?>
<!DOCTYPE svg PUBLIC "-//W3C//DTD SVG 20010904//EN"
 "http://www.w3.org/TR/2001/REC-SVG-20010904/DTD/svg10.dtd">
<svg version="1.0" xmlns="http://www.w3.org/2000/svg"
 width="1024.000000pt" height="1024.000000pt" viewBox="0 0 1024.000000 1024.000000"
 preserveAspectRatio="xMidYMid meet">
<rect width="100%" height="100%" rx="15%" fill="#FFFFFF"></rect>
<g transform="translate(0.000000,1024.000000) scale(0.100000,-0.100000)"
fill="#000000" stroke="none">
    <path d="M4875 9563 c-318 -40 -610 -142 -805 -281 -134 -96 -264 -240 -320
    -357 -8 -16 -15 -31 -16 -33 -1 -2 -42 -11 -90 -21 -184 -38 -325 -131 -465
    -307 -301 -378 -317 -1089 -37 -1697 l31 -68 -50 -52 c-99 -101 -152 -211
    -174 -357 -16 -112 -7 -208 30 -319 61 -183 160 -313 314 -412 62 -40 226 -99
    276 -99 27 0 29 -3 36 -47 9 -66 77 -268 116 -344 94 -187 198 -322 347 -452
    l102 -89 0 -77 c0 -67 -3 -82 -25 -111 -29 -39 -60 -117 -69 -176 l-7 -41
    -362 -115 c-199 -64 -508 -162 -686 -218 -584 -184 -664 -215 -829 -324 -256
    -168 -423 -411 -522 -755 -78 -271 -107 -609 -117 -1351 l-6 -485 23 -53 c14
    -33 41 -69 72 -97 52 -46 68 -54 68 -32 0 6 0 176 0 377 0 710 36 1267 100
    1537 58 246 205 503 363 635 162 136 259 181 685 321 410 136 581 187 586 179
    2 -4 6 -36 10 -72 36 -342 179 -742 376 -1049 28 -43 50 -84 50 -90 0 -10 -65
    -190 -105 -294 -6 -14 -14 -16 -41 -11 -20 4 -47 1 -65 -6 -34 -15 -45 -33
    -162 -290 -41 -91 -127 -270 -190 -398 l-114 -232 -22 107 c-33 152 -113 467
    -155 603 -43 141 -177 500 -200 534 -34 52 -110 41 -131 -18 -8 -24 -1 -52 44
    -180 72 -203 152 -456 189 -596 l31 -115 -73 80 c-40 44 -126 139 -192 212
    -246 272 -469 509 -493 525 -34 23 -62 23 -94 -2 -32 -25 -42 -66 -24 -94 16
    -23 226 -259 457 -512 80 -88 176 -195 215 -239 96 -110 171 -192 227 -246 45
    -44 49 -52 73 -153 14 -58 25 -113 25 -122 0 -10 -26 -69 -58 -133 -69 -137
    -127 -269 -121 -275 2 -3 38 -6 79 -7 l75 -3 157 305 c86 167 241 477 344 689
    102 212 190 389 195 394 8 9 82 -18 299 -109 120 -51 209 -88 460 -190 146
    -59 390 -166 390 -171 0 -2 -65 -202 -145 -446 -80 -243 -145 -448 -145 -455
    0 -10 21 -13 79 -13 l78 0 36 102 c20 57 79 240 132 408 53 168 99 307 101
    309 2 2 30 -4 63 -14 70 -21 99 -14 206 48 224 130 548 421 767 688 168 204
    277 369 406 609 132 248 254 630 269 846 6 80 7 84 27 78 177 -52 697 -217
    836 -266 128 -44 263 -108 336 -158 65 -45 187 -163 240 -232 55 -71 117 -184
    160 -295 109 -278 145 -659 148 -1555 1 -449 4 -558 14 -558 27 0 110 91 132
    146 l23 55 -6 532 c-6 541 -11 636 -48 947 -34 289 -81 466 -174 649 -121 241
    -333 444 -579 556 -143 65 -676 236 -1436 460 -135 40 -271 80 -302 89 l-58
    17 0 209 0 208 78 66 c213 180 387 469 452 753 l21 89 72 13 c258 43 459 234
    553 521 23 73 27 102 28 205 0 188 -45 314 -160 443 l-56 63 22 57 c138 353
    189 672 161 1002 -23 282 -123 565 -277 792 -335 492 -874 814 -1512 902 -104
    15 -478 21 -567 9z m605 -181 c354 -67 651 -191 903 -380 226 -169 417 -391
    530 -617 82 -166 140 -362 152 -517 14 -185 15 -201 6 -192 -4 5 -14 38 -21
    73 -30 159 -86 323 -170 492 -216 437 -589 746 -1098 909 -401 128 -803 142
    -1185 40 -297 -79 -531 -248 -645 -467 l-40 -77 -108 0 c-100 -1 -114 -3 -174
    -32 -79 -37 -175 -116 -236 -192 -51 -64 -142 -244 -174 -342 -28 -88 -67
    -283 -81 -405 -6 -55 -12 -102 -14 -103 -11 -12 -17 114 -12 267 6 216 34 336
    113 494 69 137 204 280 318 336 74 36 201 71 260 71 l42 0 29 66 c74 170 238
    331 440 432 146 73 372 137 574 162 116 15 473 4 591 -18z m-689 -249 c70 -41
    35 -113 -55 -113 -12 0 -58 -12 -104 -26 -90 -29 -112 -24 -112 23 0 56 53 89
    195 122 22 5 42 9 43 10 2 1 17 -7 33 -16z m233 -19 c34 -34 9 -78 -41 -72
    -22 2 -29 9 -31 31 -6 50 38 75 72 41z m-98 -334 c142 -13 349 -67 602 -159
    310 -113 351 -123 507 -125 72 -1 136 -5 143 -9 6 -5 12 -21 12 -37 0 -50 -37
    -65 -155 -65 -140 0 -230 19 -444 93 -469 162 -573 187 -821 202 -91 6 -187
    12 -215 15 -27 2 -66 4 -85 5 l-35 1 50 23 c61 28 132 46 228 56 101 10 101
    10 213 0z m-366 -206 c87 -25 140 -57 279 -168 71 -57 151 -119 176 -136 54
    -37 156 -84 203 -95 60 -13 79 -80 30 -106 -39 -21 -193 20 -305 81 -31 16
    -58 28 -60 26 -3 -2 2 -17 10 -33 40 -79 21 -67 -62 38 -113 145 -191 218
    -278 261 -61 30 -76 33 -158 33 -77 0 -98 -4 -148 -27 -72 -34 -110 -65 -161
    -132 l-39 -51 6 38 c20 131 151 256 299 287 52 11 134 4 208 -16z m-652 -164
    c3 -35 2 -36 -44 -48 -143 -38 -272 -148 -339 -286 -41 -86 -61 -103 -93 -80
    -33 23 -27 56 25 157 97 187 258 301 418 293 27 -1 30 -5 33 -36z m788 -352
    l60 -11 61 -126 c117 -245 282 -453 459 -580 150 -107 233 -134 281 -89 44 41
    30 73 -63 141 -87 64 -224 211 -210 225 3 2 31 -19 62 -47 73 -67 268 -196
    376 -249 146 -72 429 -162 509 -162 41 0 79 36 79 74 0 40 -16 55 -100 94 -78
    35 -132 74 -65 46 46 -19 183 -57 268 -74 l57 -11 0 -44 c0 -95 58 -224 131
    -290 l42 -37 -12 -117 c-37 -367 -147 -1088 -196 -1281 -67 -263 -170 -443
    -362 -631 -99 -98 -281 -247 -391 -321 -89 -60 -239 -130 -262 -123 -9 3 -81
    75 -161 160 -79 86 -160 166 -179 180 -78 53 -111 46 -442 -90 l-187 -78 -43
    34 c-24 18 -90 75 -148 125 -299 262 -409 431 -495 768 -51 201 -154 911 -189
    1311 l-5 61 49 42 c55 47 101 132 119 222 7 30 16 134 21 231 10 197 32 289
    90 379 91 141 290 247 525 279 79 11 230 6 321 -11z m-1259 -1473 c6 -55 14
    -112 17 -127 l5 -27 -46 24 c-66 36 -122 34 -168 -6 -24 -22 -35 -40 -35 -59
    0 -35 13 -45 79 -59 30 -6 69 -21 87 -32 43 -26 124 -134 124 -164 0 -22 43
    -306 56 -374 7 -31 6 -32 -22 -25 -99 24 -231 116 -303 211 -154 204 -162 486
    -18 649 17 21 50 50 72 66 33 24 47 28 89 26 l50 -3 13 -100z m3484 77 c108
    -69 167 -177 176 -323 11 -174 -48 -330 -172 -456 -54 -55 -89 -81 -146 -107
    -98 -45 -129 -52 -129 -29 0 17 56 374 65 420 3 12 28 46 55 76 51 56 112 87
    168 87 14 0 34 7 44 17 28 25 22 61 -16 99 -29 29 -41 34 -80 34 -27 0 -63 -9
    -86 -20 -22 -11 -41 -20 -43 -20 -2 0 5 53 14 118 10 64 18 120 18 125 1 4 20
    7 44 7 30 0 57 -9 88 -28z m-1862 -2069 l56 -58 -115 -12 c-318 -36 -435 -54
    -460 -72 -31 -23 -38 -66 -13 -93 17 -19 26 -20 118 -14 55 4 145 11 200 16
    368 36 396 34 428 -19 37 -63 43 -61 -240 -62 -298 -1 -320 -3 -345 -26 -28
    -25 -21 -84 12 -100 17 -8 121 -15 311 -20 364 -11 348 -2 389 -208 12 -60 30
    -146 41 -190 26 -108 25 -137 -7 -168 -28 -28 -283 -164 -325 -173 -38 -9 -79
    30 -85 81 -8 65 19 96 136 155 55 28 100 56 100 63 0 19 -39 136 -57 171 -13
    25 -18 28 -51 22 -21 -3 -95 -6 -165 -6 -112 0 -128 -2 -134 -17 -4 -10 3 -73
    14 -141 19 -110 20 -127 7 -157 -20 -48 -17 -141 5 -191 18 -40 94 -114 117
    -114 23 0 94 -268 94 -355 0 -30 -7 -74 -17 -97 -20 -53 -101 -178 -114 -178
    -6 0 -8 -4 -4 -9 3 -5 -2 -26 -12 -45 -12 -26 -19 -33 -26 -24 -6 9 -7 8 -3
    -4 6 -21 -20 -88 -35 -88 -5 0 -54 18 -107 40 -53 23 -106 45 -117 49 -11 5
    -108 43 -215 85 -107 42 -201 80 -207 84 -10 6 -5 26 19 83 l31 74 -12 280
    c-6 154 -16 408 -23 565 -7 157 -12 344 -13 415 0 119 2 134 25 180 14 28 40
    60 59 72 18 12 124 58 235 102 110 44 244 98 296 120 130 55 142 54 209 -16z
    m865 -709 c11 -8 26 -14 33 -14 18 0 17 -12 -13 -131 -59 -235 -186 -453 -370
    -635 -82 -81 -217 -180 -286 -208 l-35 -15 -6 63 c-5 55 -45 234 -63 279 -4
    12 16 27 83 60 155 79 267 147 305 186 39 41 60 97 53 140 -3 14 -18 97 -35
    183 -16 87 -30 168 -30 180 0 17 19 38 70 76 80 61 150 136 218 230 l47 67 5
    -224 c5 -206 6 -224 24 -237z m-1850 4 c4 -90 12 -232 17 -317 6 -84 8 -155 6
    -157 -2 -3 -20 40 -40 94 -49 138 -89 320 -90 420 l-2 84 45 18 c25 10 48 18
    51 19 4 1 9 -72 13 -161z m2133 121 c15 -5 30 -15 34 -20 10 -16 -19 -208 -45
    -306 -55 -202 -139 -395 -258 -594 -130 -218 -275 -397 -486 -600 -128 -124
    -273 -231 -280 -207 -8 25 -47 60 -94 84 -27 13 -48 30 -48 37 0 6 40 74 88
    151 l88 138 74 28 c98 35 172 73 240 123 257 188 450 453 550 756 44 132 66
    231 76 344 7 82 10 86 61 66z m-2407 -91 c0 -76 43 -273 91 -420 32 -99 110
    -271 171 -378 26 -46 40 -87 48 -138 11 -67 10 -79 -11 -147 -16 -50 -29 -75
    -39 -75 -8 0 -24 -3 -35 -6 -18 -4 -30 11 -82 98 -108 183 -185 349 -249 543
    -49 149 -74 272 -97 480 -2 17 13 25 93 52 52 17 98 32 103 32 4 1 7 -18 7
    -41z m2707 7 c43 -14 83 -28 90 -33 34 -22 -75 -489 -163 -694 -103 -242 -222
    -440 -426 -713 -192 -256 -532 -568 -788 -723 -53 -32 -55 -33 -85 -16 -76 40
    -74 28 -26 182 23 75 49 142 58 147 8 6 68 43 132 84 130 82 192 134 333 277
    283 290 500 617 633 954 71 180 135 428 135 525 0 43 4 43 107 10z m-2301
    -1374 c65 -26 135 -55 154 -64 19 -9 157 -64 305 -122 149 -58 284 -112 302
    -120 42 -19 68 -57 55 -82 -6 -10 -28 -78 -51 -152 -23 -74 -43 -137 -46 -139
    -2 -2 -55 17 -117 43 -62 26 -194 80 -293 120 -442 179 -581 237 -588 244 -5
    5 -1 26 8 47 9 22 34 86 56 144 37 99 57 130 84 130 6 0 65 -22 131 -49z"/>
    <path d="M4105 7120 c-148 -16 -227 -42 -271 -92 -34 -36 -38 -64 -15 -87 26
    -26 34 -26 124 0 117 34 425 41 642 15 67 -8 90 2 100 45 11 46 -33 85 -118
    104 -85 19 -344 28 -462 15z"/>
    <path d="M5699 7115 c-113 -16 -176 -43 -185 -82 -7 -28 2 -50 28 -67 11 -6
    71 -5 184 3 188 15 409 4 519 -25 105 -27 114 -28 135 -9 26 23 25 65 0 98
    -61 77 -408 119 -681 82z"/>
    <path d="M5825 6723 c-110 -9 -224 -55 -295 -119 -48 -44 -58 -69 -34 -95 23
    -26 42 -24 96 10 25 16 54 34 65 40 20 10 20 10 2 -26 -25 -49 -25 -153 0
    -208 23 -51 89 -111 138 -124 58 -16 93 -13 150 13 117 55 168 213 103 323
    -24 40 -24 43 -7 43 18 0 154 -67 184 -90 33 -25 65 -25 88 0 24 27 11 56 -47
    102 -64 51 -105 74 -179 97 -64 21 -203 39 -264 34z"/>
    <path d="M4150 6705 c-126 -35 -280 -135 -280 -183 0 -53 63 -68 116 -27 31
    24 155 87 160 82 1 -1 -7 -29 -18 -62 -40 -119 9 -245 117 -303 42 -23 150
    -22 194 2 110 59 153 199 96 312 -14 27 -25 50 -25 51 0 7 40 -14 77 -39 56
    -38 102 -47 119 -23 11 15 11 22 -1 45 -20 38 -117 109 -184 133 -75 27 -289
    34 -371 12z"/>
    <path d="M5027 6428 c-33 -26 -37 -64 -31 -311 7 -266 12 -287 63 -287 16 0
    36 9 47 21 17 19 19 42 22 275 l3 255 -30 29 c-32 33 -49 37 -74 18z"/>
    <path d="M5137 5672 c-52 -57 26 -139 86 -91 51 39 25 109 -40 109 -16 0 -37
    -8 -46 -18z"/>
    <path d="M4626 5308 c-9 -12 -16 -28 -16 -34 0 -48 148 -132 281 -160 114 -25
    323 -22 424 5 95 25 253 98 266 122 14 27 11 54 -9 72 -24 22 -48 21 -87 -3
    -49 -30 -183 -68 -284 -79 -158 -17 -379 17 -478 75 -52 30 -77 30 -97 2z"/>
    <path d="M7462 2652 c-20 -21 -52 -100 -114 -278 -144 -409 -169 -502 -304
    -1084 -62 -270 -114 -504 -114 -515 0 -3 36 -5 80 -5 56 0 82 4 84 12 2 7 25
    110 51 228 88 400 68 345 170 451 50 52 156 173 237 269 81 96 159 189 175
    205 16 17 91 104 167 195 77 91 160 190 186 220 90 107 94 114 80 154 -13 40
    -35 56 -78 56 -33 0 -103 -72 -317 -330 -71 -85 -161 -191 -200 -235 -40 -44
    -107 -123 -150 -175 -43 -52 -85 -102 -93 -110 -13 -13 -14 -12 -8 10 4 14 20
    77 36 140 25 101 185 582 236 712 18 47 18 48 -2 75 -31 42 -86 44 -122 5z"/>
</g>
</svg>
